<svg width="68" height="69" viewBox="0 0 68 69" fill="none" xmlns="http://www.w3.org/2000/svg">
<path d="M66.6399 65.78H65.28V4.58008C65.28 3.49799 64.8501 2.46022 64.085 1.69507C63.3198 0.92992 62.282 0.5 61.2 0.5H28.5601C27.478 0.5 26.4402 0.92992 25.675 1.69507C24.9099 2.46022 24.48 3.49799 24.48 4.58008V22.2571H6.80005C5.71814 22.2571 4.6804 22.6867 3.91528 23.4517C3.15016 24.2166 2.72024 25.2542 2.71997 26.3361V65.776H1.35986C0.999169 65.776 0.653243 65.9194 0.398193 66.1744C0.143144 66.4295 0 66.7754 0 67.1361C0 67.4968 0.143144 67.8427 0.398193 68.0978C0.653243 68.3528 0.999169 68.4961 1.35986 68.4961H66.6389C66.9996 68.4961 67.3455 68.3528 67.6006 68.0978C67.8556 67.8427 67.999 67.4968 67.999 67.1361C67.999 66.7754 67.8556 66.4295 67.6006 66.1744C67.3455 65.9194 66.9996 65.776 66.6389 65.776L66.6399 65.78ZM27.2 4.58008C27.2 4.40148 27.2351 4.22457 27.3035 4.05957C27.3718 3.89457 27.4721 3.7447 27.5984 3.61841C27.7247 3.49212 27.8745 3.39195 28.0396 3.32361C28.2046 3.25526 28.3815 3.22009 28.5601 3.22009H61.2C61.5606 3.22036 61.9064 3.36366 62.1614 3.61865C62.4164 3.87364 62.5598 4.21947 62.5601 4.58008V65.78H40.8V26.3401C40.7998 25.2582 40.3696 24.2206 39.6045 23.4557C38.8394 22.6908 37.8019 22.2611 36.72 22.2611H27.2V4.58008ZM5.43994 26.3401C5.44047 25.9796 5.5839 25.634 5.83887 25.3793C6.09383 25.1245 6.43961 24.9813 6.80005 24.9811H36.72C37.0804 24.9813 37.4259 25.1245 37.6809 25.3793C37.9359 25.634 38.0795 25.9796 38.0801 26.3401V65.78H5.43994V26.3401ZM17.6799 33.14H10.8799C10.5192 33.14 10.1733 32.9967 9.91821 32.7417C9.66316 32.4867 9.52002 32.1407 9.52002 31.78C9.52002 31.4193 9.66316 31.0734 9.91821 30.8184C10.1733 30.5633 10.5192 30.42 10.8799 30.42H17.6799C18.0406 30.42 18.3866 30.5633 18.6416 30.8184C18.8967 31.0734 19.04 31.4193 19.04 31.78C19.04 32.1407 18.8967 32.4867 18.6416 32.7417C18.3866 32.9967 18.0406 33.14 17.6799 33.14ZM32.6399 33.14H25.8398C25.4791 33.14 25.1332 32.9967 24.8782 32.7417C24.6231 32.4867 24.48 32.1407 24.48 31.78C24.48 31.4193 24.6231 31.0734 24.8782 30.8184C25.1332 30.5633 25.4791 30.42 25.8398 30.42H32.6399C33.0006 30.42 33.3465 30.5633 33.6016 30.8184C33.8566 31.0734 34 31.4193 34 31.78C34 32.1407 33.8566 32.4867 33.6016 32.7417C33.3465 32.9967 33.0006 33.14 32.6399 33.14ZM17.6799 41.3H10.8799C10.5192 41.3 10.1733 41.1568 9.91821 40.9017C9.66316 40.6467 9.52002 40.3008 9.52002 39.9401C9.52002 39.5794 9.66316 39.2334 9.91821 38.9784C10.1733 38.7233 10.5192 38.5801 10.8799 38.5801H17.6799C18.0406 38.5801 18.3866 38.7233 18.6416 38.9784C18.8967 39.2334 19.04 39.5794 19.04 39.9401C19.04 40.3008 18.8967 40.6467 18.6416 40.9017C18.3866 41.1568 18.0406 41.3 17.6799 41.3ZM32.6399 41.3H25.8398C25.4791 41.3 25.1332 41.1568 24.8782 40.9017C24.6231 40.6467 24.48 40.3008 24.48 39.9401C24.48 39.5794 24.6231 39.2334 24.8782 38.9784C25.1332 38.7233 25.4791 38.5801 25.8398 38.5801H32.6399C33.0006 38.5801 33.3465 38.7233 33.6016 38.9784C33.8566 39.2334 34 39.5794 34 39.9401C34 40.3008 33.8566 40.6467 33.6016 40.9017C33.3465 41.1568 33.0006 41.3 32.6399 41.3ZM17.6799 49.4611H10.8799C10.5192 49.4611 10.1733 49.3178 9.91821 49.0627C9.66316 48.8077 9.52002 48.4618 9.52002 48.1011C9.52002 47.7404 9.66316 47.3945 9.91821 47.1394C10.1733 46.8844 10.5192 46.7411 10.8799 46.7411H17.6799C18.0406 46.7411 18.3866 46.8844 18.6416 47.1394C18.8967 47.3945 19.04 47.7404 19.04 48.1011C19.04 48.4618 18.8967 48.8077 18.6416 49.0627C18.3866 49.3178 18.0406 49.4611 17.6799 49.4611ZM32.6399 49.4611H25.8398C25.4791 49.4611 25.1332 49.3178 24.8782 49.0627C24.6231 48.8077 24.48 48.4618 24.48 48.1011C24.48 47.7404 24.6231 47.3945 24.8782 47.1394C25.1332 46.8844 25.4791 46.7411 25.8398 46.7411H32.6399C33.0006 46.7411 33.3465 46.8844 33.6016 47.1394C33.8566 47.3945 34 47.7404 34 48.1011C34 48.4618 33.8566 48.8077 33.6016 49.0627C33.3465 49.3178 33.0006 49.4611 32.6399 49.4611ZM17.6799 57.6211H10.8799C10.5192 57.6211 10.1733 57.4778 9.91821 57.2228C9.66316 56.9677 9.52002 56.6218 9.52002 56.2611C9.52002 55.9004 9.66316 55.5545 9.91821 55.2994C10.1733 55.0444 10.5192 54.901 10.8799 54.901H17.6799C18.0406 54.901 18.3866 55.0444 18.6416 55.2994C18.8967 55.5545 19.04 55.9004 19.04 56.2611C19.04 56.6218 18.8967 56.9677 18.6416 57.2228C18.3866 57.4778 18.0406 57.6211 17.6799 57.6211ZM32.6399 57.6211H25.8398C25.4791 57.6211 25.1332 57.4778 24.8782 57.2228C24.6231 56.9677 24.48 56.6218 24.48 56.2611C24.48 55.9004 24.6231 55.5545 24.8782 55.2994C25.1332 55.0444 25.4791 54.901 25.8398 54.901H32.6399C33.0006 54.901 33.3465 55.0444 33.6016 55.2994C33.8566 55.5545 34 55.9004 34 56.2611C34 56.6218 33.8566 56.9677 33.6016 57.2228C33.3465 57.4778 33.0006 57.6211 32.6399 57.6211ZM35.3608 11.3811V16.821C35.3608 17.1819 35.2175 17.5279 34.9624 17.7831C34.7073 18.0382 34.3613 18.1815 34.0005 18.1815C33.6397 18.1815 33.2935 18.0382 33.0383 17.7831C32.7832 17.5279 32.6399 17.1819 32.6399 16.821V11.3811C32.6399 11.0203 32.7832 10.6742 33.0383 10.4191C33.2935 10.1639 33.6397 10.0205 34.0005 10.0205C34.3613 10.0205 34.7073 10.1639 34.9624 10.4191C35.2175 10.6742 35.3608 11.0203 35.3608 11.3811ZM38.0811 16.821V11.3811C38.0811 11.0204 38.2242 10.6745 38.4792 10.4194C38.7343 10.1644 39.0802 10.021 39.4409 10.021C39.8016 10.021 40.1475 10.1644 40.4026 10.4194C40.6576 10.6745 40.801 11.0204 40.801 11.3811V16.821C40.801 16.9996 40.7659 17.1765 40.6975 17.3416C40.6292 17.5066 40.5289 17.6564 40.4026 17.7827C40.2763 17.909 40.1264 18.0092 39.9614 18.0775C39.7964 18.1459 39.6195 18.181 39.4409 18.181C39.2623 18.181 39.0854 18.1459 38.9204 18.0775C38.7554 18.0092 38.6055 17.909 38.4792 17.7827C38.353 17.6564 38.2529 17.5066 38.1846 17.3416C38.1162 17.1765 38.0811 16.9996 38.0811 16.821ZM43.521 16.821V11.3811C43.521 11.0204 43.6641 10.6745 43.9192 10.4194C44.1742 10.1644 44.5202 10.021 44.8809 10.021C45.2416 10.021 45.5875 10.1644 45.8425 10.4194C46.0976 10.6745 46.241 11.0204 46.241 11.3811V16.821C46.241 17.1817 46.0976 17.5277 45.8425 17.7827C45.5875 18.0378 45.2416 18.181 44.8809 18.181C44.5202 18.181 44.1742 18.0378 43.9192 17.7827C43.6641 17.5277 43.521 17.1817 43.521 16.821ZM48.9609 16.821V11.3811C48.9609 11.0204 49.1043 10.6745 49.3594 10.4194C49.6144 10.1644 49.9604 10.021 50.321 10.021C50.6817 10.021 51.0277 10.1644 51.2827 10.4194C51.5378 10.6745 51.6809 11.0204 51.6809 11.3811V16.821C51.6809 17.1817 51.5378 17.5277 51.2827 17.7827C51.0277 18.0378 50.6817 18.181 50.321 18.181C49.9604 18.181 49.6144 18.0378 49.3594 17.7827C49.1043 17.5277 48.9609 17.1817 48.9609 16.821ZM54.4009 16.821V11.3811C54.4009 11.0204 54.5443 10.6745 54.7993 10.4194C55.0544 10.1644 55.4003 10.021 55.761 10.021C56.1217 10.021 56.4676 10.1644 56.7227 10.4194C56.9777 10.6745 57.1208 11.0204 57.1208 11.3811V16.821C57.1208 16.9996 57.0857 17.1765 57.0173 17.3416C56.949 17.5066 56.8489 17.6564 56.7227 17.7827C56.5964 17.909 56.4465 18.0092 56.2815 18.0775C56.1165 18.1459 55.9396 18.181 55.761 18.181C55.5824 18.181 55.4055 18.1459 55.2405 18.0775C55.0755 18.0092 54.9256 17.909 54.7993 17.7827C54.673 17.6564 54.5727 17.5066 54.5044 17.3416C54.436 17.1765 54.4009 16.9996 54.4009 16.821ZM43.522 30.421V24.9811C43.522 24.8025 43.5571 24.6256 43.6255 24.4606C43.6938 24.2956 43.7941 24.1457 43.9204 24.0194C44.0467 23.8931 44.1966 23.793 44.3616 23.7246C44.5266 23.6563 44.7035 23.6211 44.8821 23.6211C45.0607 23.6211 45.2373 23.6563 45.4023 23.7246C45.5673 23.793 45.7172 23.8931 45.8435 24.0194C45.9698 24.1457 46.0701 24.2956 46.1384 24.4606C46.2068 24.6256 46.2419 24.8025 46.2419 24.9811V30.421C46.2419 30.7817 46.0986 31.1276 45.8435 31.3827C45.5885 31.6377 45.2428 31.781 44.8821 31.781C44.5214 31.781 44.1755 31.6377 43.9204 31.3827C43.6654 31.1276 43.522 30.7817 43.522 30.421ZM48.9619 30.421V24.9811C48.9619 24.8025 48.9971 24.6256 49.0654 24.4606C49.1338 24.2956 49.2341 24.1457 49.3604 24.0194C49.4866 23.8931 49.6365 23.793 49.8015 23.7246C49.9665 23.6563 50.1434 23.6211 50.322 23.6211C50.5006 23.6211 50.6775 23.6563 50.8425 23.7246C51.0075 23.793 51.1574 23.8931 51.2837 24.0194C51.41 24.1457 51.51 24.2956 51.5784 24.4606C51.6467 24.6256 51.6819 24.8025 51.6819 24.9811V30.421C51.6819 30.7817 51.5387 31.1276 51.2837 31.3827C51.0286 31.6377 50.6827 31.781 50.322 31.781C49.9613 31.781 49.6154 31.6377 49.3604 31.3827C49.1053 31.1276 48.9619 30.7817 48.9619 30.421ZM54.4019 30.421V24.9811C54.4019 24.8025 54.437 24.6256 54.5054 24.4606C54.5737 24.2956 54.674 24.1457 54.8003 24.0194C54.9266 23.8931 55.0765 23.793 55.2415 23.7246C55.4065 23.6563 55.5834 23.6211 55.762 23.6211C55.9406 23.6211 56.1175 23.6563 56.2825 23.7246C56.4475 23.793 56.5973 23.8931 56.7236 24.0194C56.8499 24.1457 56.9502 24.2956 57.0186 24.4606C57.0869 24.6256 57.1221 24.8025 57.1221 24.9811V30.421C57.1221 30.7817 56.9787 31.1276 56.7236 31.3827C56.4686 31.6377 56.1227 31.781 55.762 31.781C55.4013 31.781 55.0553 31.6377 54.8003 31.3827C54.5452 31.1276 54.4019 30.7817 54.4019 30.421ZM43.5229 44.021V38.5811C43.5229 38.2204 43.6663 37.8744 43.9214 37.6194C44.1764 37.3643 44.5224 37.2211 44.8831 37.2211C45.2438 37.2211 45.5897 37.3643 45.8447 37.6194C46.0998 37.8744 46.2429 38.2204 46.2429 38.5811V44.021C46.2429 44.1996 46.2078 44.3765 46.1394 44.5415C46.0711 44.7065 45.971 44.8564 45.8447 44.9827C45.7184 45.109 45.5683 45.2092 45.4033 45.2776C45.2383 45.3459 45.0617 45.3811 44.8831 45.3811C44.7045 45.3811 44.5276 45.3459 44.3625 45.2776C44.1975 45.2092 44.0477 45.109 43.9214 44.9827C43.7951 44.8564 43.6948 44.7065 43.6265 44.5415C43.5581 44.3765 43.5229 44.1996 43.5229 44.021ZM48.9629 44.021V38.5811C48.9629 38.2204 49.1063 37.8744 49.3613 37.6194C49.6164 37.3643 49.9623 37.2211 50.323 37.2211C50.6837 37.2211 51.0296 37.3643 51.2847 37.6194C51.5397 37.8744 51.6829 38.2204 51.6829 38.5811V44.021C51.6829 44.3817 51.5397 44.7276 51.2847 44.9827C51.0296 45.2377 50.6837 45.3811 50.323 45.3811C49.9623 45.3811 49.6164 45.2377 49.3613 44.9827C49.1063 44.7276 48.9629 44.3817 48.9629 44.021ZM54.4031 44.021V38.5811C54.4031 38.2204 54.5462 37.8744 54.8013 37.6194C55.0563 37.3643 55.4022 37.2211 55.7629 37.2211C56.1236 37.2211 56.4696 37.3643 56.7246 37.6194C56.9797 37.8744 57.123 38.2204 57.123 38.5811V44.021C57.123 44.3817 56.9797 44.7276 56.7246 44.9827C56.4696 45.2377 56.1236 45.3811 55.7629 45.3811C55.4022 45.3811 55.0563 45.2377 54.8013 44.9827C54.5462 44.7276 54.4031 44.3817 54.4031 44.021ZM43.5239 57.6211V52.181C43.5239 51.8203 43.6673 51.4744 43.9224 51.2194C44.1774 50.9643 44.5233 50.821 44.884 50.821C45.2447 50.821 45.5907 50.9643 45.8457 51.2194C46.1008 51.4744 46.2439 51.8203 46.2439 52.181V57.6211C46.2439 57.9818 46.1008 58.3277 45.8457 58.5828C45.5907 58.8378 45.2447 58.9811 44.884 58.9811C44.5233 58.9811 44.1774 58.8378 43.9224 58.5828C43.6673 58.3277 43.5239 57.9818 43.5239 57.6211ZM48.9639 57.6211V52.181C48.9639 52.0024 48.999 51.8256 49.0674 51.6606C49.1357 51.4956 49.236 51.3456 49.3623 51.2194C49.4886 51.0931 49.6385 50.9929 49.8035 50.9246C49.9685 50.8562 50.1454 50.821 50.324 50.821C50.5026 50.821 50.6795 50.8562 50.8445 50.9246C51.0095 50.9929 51.1594 51.0931 51.2856 51.2194C51.4119 51.3456 51.512 51.4956 51.5803 51.6606C51.6487 51.8256 51.6841 52.0024 51.6841 52.181V57.6211C51.6841 57.7997 51.6487 57.9765 51.5803 58.1415C51.512 58.3065 51.4119 58.4565 51.2856 58.5828C51.1594 58.7091 51.0095 58.8092 50.8445 58.8776C50.6795 58.9459 50.5026 58.9811 50.324 58.9811C50.1454 58.9811 49.9685 58.9459 49.8035 58.8776C49.6385 58.8092 49.4886 58.7091 49.3623 58.5828C49.236 58.4565 49.1357 58.3065 49.0674 58.1415C48.999 57.9765 48.9639 57.7997 48.9639 57.6211ZM54.4041 57.6211V52.181C54.4041 52.0024 54.4392 51.8256 54.5076 51.6606C54.5759 51.4956 54.676 51.3456 54.8022 51.2194C54.9285 51.0931 55.0784 50.9929 55.2434 50.9246C55.4084 50.8562 55.5853 50.821 55.7639 50.821C55.9425 50.821 56.1194 50.8562 56.2844 50.9246C56.4494 50.9929 56.5993 51.0931 56.7256 51.2194C56.8519 51.3456 56.9522 51.4956 57.0205 51.6606C57.0889 51.8256 57.124 52.0024 57.124 52.181V57.6211C57.124 57.7997 57.0889 57.9765 57.0205 58.1415C56.9522 58.3065 56.8519 58.4565 56.7256 58.5828C56.5993 58.7091 56.4494 58.8092 56.2844 58.8776C56.1194 58.9459 55.9425 58.9811 55.7639 58.9811C55.5853 58.9811 55.4084 58.9459 55.2434 58.8776C55.0784 58.8092 54.9285 58.7091 54.8022 58.5828C54.676 58.4565 54.5759 58.3065 54.5076 58.1415C54.4392 57.9765 54.4041 57.7997 54.4041 57.6211Z" fill="#50565F"/>
</svg>
